# WaveFront *.obj file (generated by CINEMA 4D)

mtllib ./sphere3.mtl

v -0.03150616958737 -0.06160508468747 0.18257622420788
v -0.03150616958737 -0.18408478796482 0.18257622420788
v -0.14135909080505 -0.06160508468747 0.18257622420788
v -0.14135909080505 -0.18408478796482 0.18257622420788
v -0.14135909080505 -0.06160508468747 0.29234164953232
v -0.14135909080505 -0.18408478796482 0.29234164953232
v -0.03150616958737 -0.06160508468747 0.29234164953232
v -0.03150616958737 -0.18408478796482 0.29234164953232
v 0.12681013345718 -0.06160508468747 0.18389081954956
v 0.12681013345718 -0.18408478796482 0.18389081954956
v 0.01446369010955 -0.06160508468747 0.18389081954956
v 0.01446369010955 -0.18408478796482 0.18389081954956
v 0.01446369010955 -0.06160508468747 0.29102703928947
v 0.01446369010955 -0.18408478796482 0.29102703928947
v 0.12681013345718 -0.06160508468747 0.29102703928947
v 0.12681013345718 -0.18408478796482 0.29102703928947
v 0.09382923692465 0.46223050355911 -0.05980396643281
v 0.09382923692465 0.11576955020428 -0.05980396643281
v -0.13299812376499 0.46223050355911 -0.05980396643281
v -0.13299812376499 0.11576955020428 -0.05980396643281
v -0.13299812376499 0.46223050355911 0.44931095838547
v -0.13299812376499 0.11576955020428 0.44931095838547
v 0.09382923692465 0.46223050355911 0.44931095838547
v 0.09382923692465 0.11576955020428 0.44931095838547
v -0.06039567291737 -0.10475386679173 0.03573833778501
v -0.06039567291737 -0.14093600213528 0.03573833778501
v -0.11217401176691 -0.10475386679173 0.03573833778501
v -0.11217401176691 -0.14093600213528 0.03573833778501
v -0.11217401176691 -0.10475386679173 0.1957383453846
v -0.11217401176691 -0.14093600213528 0.1957383453846
v -0.06039567291737 -0.10475386679173 0.1957383453846
v -0.06039567291737 -0.14093600213528 0.1957383453846
v 0.09652607887983 -0.10475386679173 0.03573833778501
v 0.09652607887983 -0.14093600213528 0.03573833778501
v 0.04474774375558 -0.10475386679173 0.03573833778501
v 0.04474774375558 -0.14093600213528 0.03573833778501
v 0.04474774375558 -0.10475386679173 0.1957383453846
v 0.04474774375558 -0.14093600213528 0.1957383453846
v 0.09652607887983 -0.10475386679173 0.1957383453846
v 0.09652607887983 -0.14093600213528 0.1957383453846
v 0.18420428037643 -0.23384490609169 -0.125
v 0.18420428037643 -0.23384490609169 0.125
v -0.21579572558403 -0.23384490609169 -0.125
v -0.21579572558403 -0.23384490609169 0.125
v -0.21579572558403 0.56615507602692 -0.125
v -0.21579572558403 0.56615507602692 0.125
v 0.18420428037643 0.56615507602692 -0.125
v 0.18420428037643 0.56615507602692 0.125
# 48 vertices

vn 0 0 -1
vn -1 0 0
vn 0 0 1
vn 1 0 0
vn 0 -1 0
vn 0 1 0
# 6 normals

vt 0.96180039644241 0.32026278972626 0
vt 0.9054257273674 0.32026278972626 0
vt 0.9054257273674 0.38311731815338 0
vt 0 1 0
vt 0.21417272090912 0.32026278972626 0
vt 0.15784294903278 0.32026278972626 0
vt 0.15784294903278 0.38311731815338 0
vt 0.38930103182793 0.32026278972626 0
vt 0.33292636275291 0.32026278972626 0
vt 0.33292636275291 0.38311731815338 0
vt 0.63688379526138 0.32026278972626 0
vt 0.58055400848389 0.32026278972626 0
vt 0.58055400848389 0.38311731815338 0
vt 0.33292636275291 0.21417272090912 0
vt 0.38930103182793 0.21417272090912 0
vt 0.38930103182793 0.15784299373627 0
vt 0.33292636275291 0.84215706586838 0
vt 0.38930103182793 0.84215706586838 0
vt 0.38930103182793 0.78582727909088 0
vt 0.96180039644241 0.38311731815338 0
vt 0.21417272090912 0.38311731815338 0
vt 0.38930103182793 0.38311731815338 0
vt 0.63688379526138 0.38311731815338 0
vt 0.33292636275291 0.15784299373627 0
vt 0.33292636275291 0.78582727909088 0
vt 0.8818347454071 0.32026278972626 0
vt 0.82418042421341 0.32026278972626 0
vt 0.82418042421341 0.38311731815338 0
vt 0.21349808573723 0.32026278972626 0
vt 0.15851756930351 0.32026278972626 0
vt 0.15851756930351 0.38311731815338 0
vt 0.47054627537727 0.32026278972626 0
vt 0.4128919839859 0.32026278972626 0
vt 0.4128919839859 0.38311731815338 0
vt 0.63620913028717 0.32026278972626 0
vt 0.5812286734581 0.32026278972626 0
vt 0.5812286734581 0.38311731815338 0
vt 0.4128919839859 0.21349811553955 0
vt 0.47054627537727 0.21349811553955 0
vt 0.47054627537727 0.15851759910583 0
vt 0.4128919839859 0.84148240089416 0
vt 0.47054627537727 0.84148240089416 0
vt 0.47054627537727 0.78650188446045 0
vt 0.8818347454071 0.38311731815338 0
vt 0.21349808573723 0.38311731815338 0
vt 0.47054627537727 0.38311731815338 0
vt 0.63620913028717 0.38311731815338 0
vt 0.4128919839859 0.15851759910583 0
vt 0.4128919839859 0.78650188446045 0
vt 0.95750963687897 0.47414302825928 0
vt 0.84110569953918 0.47414302825928 0
vt 0.84110569953918 0.65194094181061 0
vt 0.29472672939301 0.47414302825928 0
vt 0.03345750644803 0.47414302825928 0
vt 0.03345750644803 0.65194094181061 0
vt 0.45362105965614 0.47414302825928 0
vt 0.33721706271172 0.47414302825928 0
vt 0.33721706271172 0.65194094181061 0
vt 0.7612692117691 0.47414302825928 0
vt 0.5 0.47414302825928 0
vt 0.5 0.65194094181061 0
vt 0.33721706271172 0.29472672939301 0
vt 0.45362105965614 0.29472672939301 0
vt 0.45362105965614 0.0334575176239 0
vt 0.33721706271172 0.9665424823761 0
vt 0.45362105965614 0.9665424823761 0
vt 0.45362105965614 0.70527327060699 0
vt 0.95750963687897 0.65194094181061 0
vt 0.29472672939301 0.65194094181061 0
vt 0.45362105965614 0.65194094181061 0
vt 0.7612692117691 0.65194094181061 0
vt 0.33721706271172 0.0334575176239 0
vt 0.33721706271172 0.70527327060699 0
vt 0.94682306051254 0.3424060344696 0
vt 0.92025130987167 0.3424060344696 0
vt 0.92025130987167 0.36097407341003 0
vt 0.16459752619267 0.3424060344696 0
vt 0.08248820900917 0.3424060344696 0
vt 0.08248820900917 0.36097407341003 0
vt 0.37447541952133 0.3424060344696 0
vt 0.34790363907814 0.3424060344696 0
vt 0.34790363907814 0.36097407341003 0
vt 0.71223849058151 0.3424060344696 0
vt 0.6301292181015 0.3424060344696 0
vt 0.6301292181015 0.36097407341003 0
vt 0.34790363907814 0.1645975112915 0
vt 0.37447541952133 0.1645975112915 0
vt 0.37447541952133 0.08248829841614 0
vt 0.34790363907814 0.91751182079315 0
vt 0.37447541952133 0.91751182079315 0
vt 0.37447541952133 0.8354024887085 0
vt 0.94682306051254 0.36097407341003 0
vt 0.16459752619267 0.36097407341003 0
vt 0.37447541952133 0.36097407341003 0
vt 0.71223849058151 0.36097407341003 0
vt 0.34790363907814 0.08248829841614 0
vt 0.34790363907814 0.8354024887085 0
vt 0.86629348993301 0.3424060344696 0
vt 0.8397216796875 0.3424060344696 0
vt 0.8397216796875 0.36097407341003 0
vt 0.45500501990318 0.3424060344696 0
vt 0.42843323945999 0.3424060344696 0
vt 0.42843323945999 0.36097407341003 0
vt 0.42843323945999 0.1645975112915 0
vt 0.45500501990318 0.1645975112915 0
vt 0.45500501990318 0.08248829841614 0
vt 0.42843323945999 0.91751182079315 0
vt 0.45500501990318 0.91751182079315 0
vt 0.45500501990318 0.8354024887085 0
vt 0.86629348993301 0.36097407341003 0
vt 0.45500501990318 0.36097407341003 0
vt 0.42843323945999 0.08248829841614 0
vt 0.42843323945999 0.8354024887085 0
vt 0.29472672939301 0.12829577922821 0
vt 0.5 0.12829577922821 0
vt 0.5 0 0
vt 0.12829579412937 0.70527327060699 0
vt 0.12829579412937 0.29472672939301 0
vt 0 0.29472672939301 0
vt 0.5 0.87170422077179 0
vt 0.29472672939301 0.87170422077179 0
vt 0.29472672939301 1 0
vt 0.66643095016479 0.29472672939301 0
vt 0.66643095016479 0.70527327060699 0
vt 0.79472672939301 0.70527327060699 0
vt 0.29472672939301 0.70527327060699 0
vt 0.5 0.70527327060699 0
vt 0.5 0.29472672939301 0
vt 1 0.29472672939301 0
vt 0.79472672939301 0.29472672939301 0
vt 0.29472672939301 0 0
vt 0 0.70527327060699 0
vt 0.5 1 0
vt 0.29472672939301 0.29472672939301 0
vt 1 0.70527327060699 0
# 135 texture coordinates

o Cube.4
usemtl default
f 1/3/1 2/2/1 4/1/1
f 3/7/2 4/6/2 6/5/2
f 5/10/3 6/9/3 8/8/3
f 7/13/4 8/12/4 2/11/4
f 2/16/5 8/15/5 6/14/5
f 7/19/6 1/18/6 3/17/6
f 1/3/1 4/1/1 3/20/1
f 3/7/2 6/5/2 5/21/2
f 5/10/3 8/8/3 7/22/3
f 7/13/4 2/11/4 1/23/4
f 2/16/5 6/14/5 4/24/5
f 7/19/6 3/17/6 5/25/6
f 9/28/1 10/27/1 12/26/1
f 11/31/2 12/30/2 14/29/2
f 13/34/3 14/33/3 16/32/3
f 15/37/4 16/36/4 10/35/4
f 10/40/5 16/39/5 14/38/5
f 15/43/6 9/42/6 11/41/6
f 9/28/1 12/26/1 11/44/1
f 11/31/2 14/29/2 13/45/2
f 13/34/3 16/32/3 15/46/3
f 15/37/4 10/35/4 9/47/4
f 10/40/5 14/38/5 12/48/5
f 15/43/6 11/41/6 13/49/6
f 17/52/1 18/51/1 20/50/1
f 19/55/2 20/54/2 22/53/2
f 21/58/3 22/57/3 24/56/3
f 23/61/4 24/60/4 18/59/4
f 18/64/5 24/63/5 22/62/5
f 23/67/6 17/66/6 19/65/6
f 17/52/1 20/50/1 19/68/1
f 19/55/2 22/53/2 21/69/2
f 21/58/3 24/56/3 23/70/3
f 23/61/4 18/59/4 17/71/4
f 18/64/5 22/62/5 20/72/5
f 23/67/6 19/65/6 21/73/6
f 25/76/1 26/75/1 28/74/1
f 27/79/2 28/78/2 30/77/2
f 29/82/3 30/81/3 32/80/3
f 31/85/4 32/84/4 26/83/4
f 26/88/5 32/87/5 30/86/5
f 31/91/6 25/90/6 27/89/6
f 25/76/1 28/74/1 27/92/1
f 27/79/2 30/77/2 29/93/2
f 29/82/3 32/80/3 31/94/3
f 31/85/4 26/83/4 25/95/4
f 26/88/5 30/86/5 28/96/5
f 31/91/6 27/89/6 29/97/6
f 33/100/1 34/99/1 36/98/1
f 35/79/2 36/78/2 38/77/2
f 37/103/3 38/102/3 40/101/3
f 39/85/4 40/84/4 34/83/4
f 34/106/5 40/105/5 38/104/5
f 39/109/6 33/108/6 35/107/6
f 33/100/1 36/98/1 35/110/1
f 35/79/2 38/77/2 37/93/2
f 37/103/3 40/101/3 39/111/3
f 39/85/4 34/83/4 33/95/4
f 34/106/5 38/104/5 36/112/5
f 39/109/6 35/107/6 37/113/6
f 41/116/5 42/115/5 44/114/5
f 43/119/2 44/118/2 46/117/2
f 45/122/6 46/121/6 48/120/6
f 47/125/4 48/124/4 42/123/4
f 42/128/3 48/127/3 46/126/3
f 47/125/1 41/130/1 43/129/1
f 41/116/5 44/114/5 43/131/5
f 43/119/2 46/117/2 45/132/2
f 45/122/6 48/120/6 47/133/6
f 47/125/4 42/123/4 41/130/4
f 42/128/3 46/126/3 44/134/3
f 47/125/1 43/129/1 45/135/1

